<svg width="42" height="50" viewBox="0 0 42 50" fill="none" xmlns="http://www.w3.org/2000/svg">
<path fill-rule="evenodd" clip-rule="evenodd" d="M15.3281 21.1658H26.6712V28.9879C26.6712 32.1167 24.1267 34.6627 20.9997 34.6627C17.8727 34.6627 15.3281 32.1167 15.3281 28.9879V21.1658Z" fill="#FF7D4E"/>
<path fill-rule="evenodd" clip-rule="evenodd" d="M34.3358 21.1658V28.9879C34.3358 36.3498 28.3577 42.3314 21 42.3314C13.6423 42.3314 7.66423 36.3498 7.66423 28.9879V21.1658H0V28.9879C0 40.5829 9.41168 50.0001 21 50.0001C32.5883 50.0001 42 40.5829 42 28.9879V21.1658H34.3358Z" fill="#725CF0"/>
<path fill-rule="evenodd" clip-rule="evenodd" d="M21.0008 0C13.6431 0 7.66504 5.9816 7.66504 13.3436V21.1656H15.3293V13.3436C15.3293 10.2147 17.8738 7.66871 21.0008 7.66871C24.1278 7.66871 26.6723 10.2147 26.6723 13.3436V21.1656H34.3366V13.3436C34.3366 5.9816 28.3585 0 21.0008 0Z" fill="#FDC672"/>
</svg>
