<svg width="47" height="38" viewBox="0 0 47 38" fill="none" xmlns="http://www.w3.org/2000/svg">
<path d="M43.0701 9.0084V0H22.6245V9.0084L19.4072 14.573C18.3559 14.6364 17.3499 14.7995 16.4255 14.9445C16.1627 14.9898 15.8999 15.0261 15.6461 15.0623V12.6063C15.6461 10.3859 17.4587 8.57339 19.6791 8.57339V5.85456C17.2956 5.85456 15.2021 7.09616 14.0058 8.95403C13.7973 8.66402 13.5798 8.4012 13.3351 8.1565C12.1026 6.93303 10.281 6.16269 8.05152 5.93612C6.44741 5.77299 5.16956 5.93612 5.11518 5.94518L4.09109 6.08113L3.95515 7.10522C3.94608 7.1596 3.78295 8.43745 3.94608 10.0416C4.14546 11.9901 4.7708 13.6395 5.74958 14.8448C3.84639 15.3433 2.38728 16.4761 1.39038 18.2071C-0.195608 20.9803 -0.449366 25.4664 0.755984 29.6444C1.44475 32.0279 2.85855 34.076 4.8433 35.5623C6.82805 37.0486 9.18437 37.8371 11.6676 37.8371H46.3961V14.7542L43.0701 9.0084ZM31.2522 8.0115V2.71883H34.4423V8.0115H31.2522ZM37.1612 2.71883H40.3513V8.0115H37.1612V2.71883ZM25.3433 2.71883H28.5334V8.0115H25.3433V2.71883ZM7.83402 8.64589C8.93061 8.76371 10.435 9.11716 11.4138 10.0869C12.7189 11.3919 12.9273 13.5851 12.9273 14.9083H12.9182C11.5951 14.9083 9.39281 14.6908 8.1059 13.4039C6.80086 12.0988 6.59241 9.90562 6.59241 8.58245C6.95493 8.58245 7.37181 8.59152 7.83402 8.64589ZM11.6676 35.1273C7.83402 35.1273 4.41735 32.5716 3.36606 28.9012C2.36916 25.4483 2.52323 21.6963 3.7467 19.5665C5.3055 16.8386 8.16028 17.0652 11.731 17.6362C12.6645 17.7812 13.5436 17.9262 14.2958 17.9262C15.048 17.9262 15.9271 17.7812 16.8605 17.6362C17.6309 17.5093 18.4647 17.3824 19.3075 17.3099V35.1273H11.6676ZM43.6773 35.1273H22.0173V15.4883L24.7633 10.7303H40.9222L43.6683 15.4883L43.6773 35.1273Z" fill="#7E70D8"/>
<path d="M31.714 17.2918L27.2098 21.796C25.3428 23.6629 25.3428 26.6989 27.2098 28.5749C28.1432 29.5084 29.3667 29.9797 30.5993 29.9797C31.8227 29.9797 33.0553 29.5084 33.9887 28.5749L38.4929 24.0707C40.3599 22.2038 40.3599 19.1678 38.4929 17.2918C36.6169 15.4158 33.5809 15.4158 31.714 17.2918ZM29.1311 26.6446C28.3245 25.838 28.3245 24.5239 29.1311 23.7173L30.418 22.4304L33.3453 25.3576L32.0584 26.6446C31.2518 27.4511 29.9377 27.4511 29.1311 26.6446ZM36.5626 22.1403L35.2756 23.4273L32.3484 20.5L33.6353 19.2131C34.0431 18.8052 34.5687 18.6059 35.1035 18.6059C35.6382 18.6059 36.1638 18.8052 36.5716 19.2131C37.3691 20.0197 37.3691 21.3338 36.5626 22.1403Z" fill="#7E70D8"/>
</svg>
