<svg width="40" height="44" viewBox="0 0 40 44" fill="none" xmlns="http://www.w3.org/2000/svg">
<path d="M29.9434 33.0701C29.3906 33.0701 28.8378 33.1154 28.294 33.2151C26.2911 31.3028 23.6992 30.1066 20.9622 29.8075V28.72L25.3486 26.1099C26.8802 26.8893 28.5024 27.3062 30.0703 27.3062C31.6019 27.3062 33.0248 26.9255 34.3026 26.1643C37.103 24.5058 38.6799 21.2432 38.5259 17.4549L38.4987 16.7208L37.8643 16.3402C36.1242 15.298 34.2392 14.7451 32.4266 14.7451C30.895 14.7451 29.4722 15.1258 28.1943 15.8871C25.6024 17.4277 24.0617 20.3369 23.9711 23.7717L20.9803 25.548V19.3581C24.5783 17.1468 26.699 13.7211 26.699 10.0506C26.699 6.14457 24.2973 2.51039 20.2734 0.335323L19.6028 0L18.9593 0.353448C14.9355 2.52852 12.5248 6.16269 12.5248 10.0687C12.5248 13.7392 14.6455 17.1649 18.2434 19.3762V25.557L15.2527 23.7807C15.162 20.3459 13.6214 17.4368 11.0294 15.8961C9.76061 15.1439 8.33776 14.7542 6.79709 14.7542C4.98453 14.7542 3.09947 15.307 1.35942 16.3493L0.725022 16.7299L0.697834 17.464C0.543767 21.2522 2.12069 24.5148 4.92109 26.1733C6.18988 26.9255 7.61274 27.3152 9.15341 27.3152C10.7213 27.3152 12.3344 26.9074 13.8751 26.1189L18.2615 28.729V29.8165C15.5245 30.1156 12.9326 31.3119 10.9297 33.2242C10.3859 33.1245 9.83312 33.0792 9.28029 33.0792C4.15982 33.0701 0 37.2299 0 42.3323V43.6917H39.2056V42.3323C39.2056 37.2299 35.0548 33.0701 29.9434 33.0701ZM29.5719 18.2343C30.4147 17.7359 31.3753 17.4821 32.4085 17.4821C33.5142 17.4821 34.6742 17.7721 35.798 18.3249C35.7074 20.7719 34.647 22.802 32.907 23.8351C32.0641 24.3336 31.1035 24.5873 30.0703 24.5873C29.4903 24.5873 28.9012 24.5058 28.3121 24.3517L31.8738 22.2401L30.4872 19.9019L26.9165 22.0226C27.3333 20.355 28.2577 19.0137 29.5719 18.2343ZM9.14435 24.5873C8.10213 24.5873 7.15053 24.3336 6.30769 23.8351C4.55858 22.7929 3.5073 20.7719 3.41667 18.3249C4.54045 17.7721 5.70049 17.4821 6.80615 17.4821C7.84837 17.4821 8.79996 17.7359 9.6428 18.2343C10.9569 19.0137 11.8813 20.3641 12.2982 22.0226L8.74558 19.9109L7.34085 22.2401L10.9025 24.3517C10.3134 24.5148 9.7153 24.5873 9.14435 24.5873ZM15.2436 10.0687C15.2436 7.3771 16.8568 4.83046 19.6028 3.1176C22.3488 4.83046 23.962 7.3771 23.962 10.0687C23.962 12.2801 22.8745 14.3917 20.9622 16.023V10.0687H18.2434V16.023C16.3402 14.3917 15.2436 12.271 15.2436 10.0687ZM2.86384 40.9728C3.48917 38.0184 6.12644 35.7889 9.26216 35.7889C9.84218 35.7889 10.4222 35.8705 10.9932 36.0246L11.7907 36.2421L12.3526 35.6349C14.2195 33.6139 16.8658 32.4538 19.6119 32.4538C22.3579 32.4538 25.0042 33.6139 26.8711 35.6349L27.433 36.2421L28.2306 36.0246C28.7925 35.8705 29.3725 35.7889 29.9616 35.7889C33.1063 35.7889 35.7345 38.0184 36.3599 40.9728H2.86384Z" fill="#FFBE5A"/>
</svg>
