<svg width="38" height="49" viewBox="0 0 38 49" fill="none" xmlns="http://www.w3.org/2000/svg">
<path d="M36.1428 38.9726V11.1083H24.8267V5.9696C24.8267 2.68226 22.1535 0 18.8571 0C15.5607 0 12.8875 2.67323 12.8875 5.9696V11.1083H1.57142V38.9816L0 48.1573H37.7142L36.1428 38.9726ZM15.5968 5.9696C15.5968 4.1724 17.0599 2.70935 18.8571 2.70935C20.6543 2.70935 22.1173 4.1724 22.1173 5.9696V11.1083H15.6059L15.5968 5.9696ZM3.2151 45.4479L4.28078 39.2074V13.8177H33.4424V39.2074L34.4991 45.4479H3.2151Z" fill="#FF7D4E"/>
<path d="M22.803 22.2054C22.3063 20.4985 20.7258 19.2432 18.8563 19.2432C16.9869 19.2432 15.4064 20.4985 14.9097 22.2054C13.4828 22.8827 12.2636 23.9213 11.3514 25.2308C10.2767 26.7661 9.7168 28.5724 9.7168 30.4599C9.7168 35.4993 13.8169 39.6085 18.8654 39.6085C23.9138 39.6085 28.0049 35.4993 28.0049 30.4509C28.0049 28.5724 27.436 26.7661 26.3703 25.2218C25.4491 23.9213 24.2299 22.8827 22.803 22.2054ZM17.4565 23.3523C17.4565 22.5757 18.0887 21.9525 18.8563 21.9525C19.624 21.9525 20.2562 22.5847 20.2562 23.3523V25.1676H18.8563C18.0797 25.1676 17.4565 24.5354 17.4565 23.7678V23.3523ZM18.8563 36.8901C15.3071 36.8901 12.4171 34.0001 12.4171 30.4509C12.4171 28.3917 13.4196 26.4681 15.0362 25.276C15.6412 26.7932 17.1224 27.8679 18.8563 27.8679H22.9655V25.5018C24.4015 26.7029 25.2956 28.5182 25.2956 30.4509C25.2956 34.0001 22.4056 36.8901 18.8563 36.8901Z" fill="#FF7D4E"/>
<path d="M18.8574 31.4717C18.4058 31.4717 18.0355 31.1015 18.0355 30.6499H15.3262C15.3262 32.6006 16.9157 34.1811 18.8574 34.1811C20.7991 34.1811 22.3885 32.5916 22.3885 30.6499H19.6792C19.6792 31.1015 19.3089 31.4717 18.8574 31.4717Z" fill="#FF7D4E"/>
</svg>
