<svg width="900" height="960" viewBox="0 0 900 960" fill="none" xmlns="http://www.w3.org/2000/svg">
<mask id="mask0_1064_1033" style="mask-type:alpha" maskUnits="userSpaceOnUse" x="0" y="0" width="900" height="960">
<rect width="900" height="960" fill="#8172DD"/>
</mask>
<g mask="url(#mask0_1064_1033)">
<rect width="901" height="960" fill="#8172DD"/>
<g opacity="0.05">
<path fill-rule="evenodd" clip-rule="evenodd" d="M753.517 -405C490.059 -405 276 -198.587 276 55.4597V325.384H550.435V55.4597C550.435 -52.5102 641.548 -140.368 753.517 -140.368C865.487 -140.368 956.599 -52.5102 956.599 55.4597V325.384H1231.03V55.4597C1231.03 -198.587 1016.98 -405 753.517 -405Z" fill="white"/>
<g filter="url(#filter0_d_1064_1033)">
<path fill-rule="evenodd" clip-rule="evenodd" d="M551 325H956.89V597.34C956.89 706.276 865.839 794.92 753.945 794.92C642.051 794.92 551 706.276 551 597.34V325Z" fill="white"/>
</g>
<path fill-rule="evenodd" clip-rule="evenodd" d="M1229.69 326.384V597.828C1229.69 853.304 1015.6 1060.88 752.09 1060.88C488.584 1060.88 274.485 853.304 274.485 597.828V326.384H0V597.828C0 1000.2 337.068 1327 752.09 1327C1167.11 1327 1504.18 1000.2 1504.18 597.828V326.384H1229.69Z" fill="white"/>
</g>
</g>
<defs>
<filter id="filter0_d_1064_1033" x="547" y="325" width="413.89" height="477.92" filterUnits="userSpaceOnUse" color-interpolation-filters="sRGB">
<feFlood flood-opacity="0" result="BackgroundImageFix"/>
<feColorMatrix in="SourceAlpha" type="matrix" values="0 0 0 0 0 0 0 0 0 0 0 0 0 0 0 0 0 0 127 0" result="hardAlpha"/>
<feOffset dy="4"/>
<feGaussianBlur stdDeviation="2"/>
<feComposite in2="hardAlpha" operator="out"/>
<feColorMatrix type="matrix" values="0 0 0 0 0 0 0 0 0 0 0 0 0 0 0 0 0 0 0.25 0"/>
<feBlend mode="normal" in2="BackgroundImageFix" result="effect1_dropShadow_1064_1033"/>
<feBlend mode="normal" in="SourceGraphic" in2="effect1_dropShadow_1064_1033" result="shape"/>
</filter>
</defs>
</svg>
