<svg width="375" height="198" viewBox="0 0 375 198" fill="none" xmlns="http://www.w3.org/2000/svg">
<mask id="mask0_1064_2426" style="mask-type:alpha" maskUnits="userSpaceOnUse" x="0" y="0" width="375" height="198">
<rect width="375" height="198" fill="#8172DD"/>
</mask>
<g mask="url(#mask0_1064_2426)">
<g opacity="0.05">
<path fill-rule="evenodd" clip-rule="evenodd" d="M211.382 73.7949H346.678V164.575C346.678 200.887 316.328 230.435 279.03 230.435C241.732 230.435 211.382 200.887 211.382 164.575V73.7949Z" fill="white"/>
<path fill-rule="evenodd" clip-rule="evenodd" d="M438.232 73.7949V164.276C438.232 249.435 366.866 318.626 279.031 318.626C191.195 318.626 119.829 249.435 119.829 164.276V73.7949H28.334V164.276C28.334 298.401 140.69 407.333 279.031 407.333C417.371 407.333 529.727 298.401 529.727 164.276V73.7949H438.232Z" fill="white"/>
<path fill-rule="evenodd" clip-rule="evenodd" d="M279.031 -169.667C191.212 -169.667 119.858 -100.862 119.858 -16.1799V73.795H211.337V-16.1799C211.337 -52.1699 241.708 -81.4558 279.031 -81.4558C316.354 -81.4558 346.725 -52.1699 346.725 -16.1799V73.795H438.203V-16.1799C438.203 -100.862 366.85 -169.667 279.031 -169.667Z" fill="white"/>
</g>
</g>
</svg>
